<?xml version="1.0" encoding="UTF-8" standalone="no"?>
<!DOCTYPE svg PUBLIC "-//W3C//DTD SVG 1.1//EN" "http://www.w3.org/Graphics/SVG/1.1/DTD/svg11.dtd">
<svg width="100%" height="100%" viewBox="0 0 2000 1400" version="1.1" xmlns="http://www.w3.org/2000/svg" xmlns:xlink="http://www.w3.org/1999/xlink" xml:space="preserve" xmlns:serif="http://www.serif.com/" style="fill-rule:evenodd;clip-rule:evenodd;stroke-linejoin:round;stroke-miterlimit:2;">
    <g transform="matrix(0.709387,0,0,0.709387,1157.94,359.385)">
        <g opacity="0.75">
            <g transform="matrix(1,0,0,1,-247.319,-247.319)">
                <g transform="matrix(0.779134,-0.449833,0.449833,0.779134,-67.2983,163.017)">
                    <g>
                        <path d="M485.291,129.408L261.291,1.408C258.006,-0.469 253.995,-0.469 250.71,1.408L26.71,129.408C23.382,131.307 21.334,134.848 21.334,138.667L21.334,373.334C21.334,377.153 23.382,380.694 26.71,382.593L250.71,510.593C252.353,511.532 254.166,512.001 256.001,512.001C257.836,512.001 259.649,511.532 261.292,510.593L485.292,382.593C488.62,380.694 490.668,377.153 490.668,373.334L490.668,138.667C490.667,134.848 488.619,131.307 485.291,129.408ZM469.333,367.147L256,489.045L42.667,367.147L42.667,144.853L256,22.955L469.333,144.854L469.333,367.147Z" style="fill-rule:nonzero;"/>
                    </g>
                </g>
            </g>
        </g>
    </g>
    <g transform="matrix(0.709387,0,0,0.709387,202.095,534.94)">
        <g opacity="0.75">
            <g transform="matrix(1,0,0,1,-247.319,-247.319)">
                <g transform="matrix(0.779134,-0.449833,0.449833,0.779134,-67.2983,163.017)">
                    <g>
                        <path d="M485.291,129.408L261.291,1.408C258.006,-0.469 253.995,-0.469 250.71,1.408L26.71,129.408C23.382,131.307 21.334,134.848 21.334,138.667L21.334,373.334C21.334,377.153 23.382,380.694 26.71,382.593L250.71,510.593C252.353,511.532 254.166,512.001 256.001,512.001C257.836,512.001 259.649,511.532 261.292,510.593L485.292,382.593C488.62,380.694 490.668,377.153 490.668,373.334L490.668,138.667C490.667,134.848 488.619,131.307 485.291,129.408ZM469.333,367.147L256,489.045L42.667,367.147L42.667,144.853L256,22.955L469.333,144.854L469.333,367.147Z" style="fill-rule:nonzero;"/>
                    </g>
                </g>
            </g>
        </g>
    </g>
    <g transform="matrix(0.709387,0,0,0.709387,841.881,534.829)">
        <g transform="matrix(1,0,0,1,-247.319,-247.319)">
            <g transform="matrix(0.779134,-0.449833,0.449833,0.779134,-67.2983,163.017)">
                <g>
                    <path d="M485.291,129.408L261.291,1.408C258.006,-0.469 253.995,-0.469 250.71,1.408L26.71,129.408C23.382,131.307 21.334,134.848 21.334,138.667L21.334,373.334C21.334,377.153 23.382,380.694 26.71,382.593L250.71,510.593C252.353,511.532 254.166,512.001 256.001,512.001C257.836,512.001 259.649,511.532 261.292,510.593L485.292,382.593C488.62,380.694 490.668,377.153 490.668,373.334L490.668,138.667C490.667,134.848 488.619,131.307 485.291,129.408ZM469.333,367.147L256,489.045L42.667,367.147L42.667,144.853L256,22.955L469.333,144.854L469.333,367.147Z" style="fill-rule:nonzero;"/>
                </g>
            </g>
        </g>
    </g>
    <g transform="matrix(0.709387,0,0,0.709387,1157.94,710.274)">
        <g transform="matrix(1,0,0,1,-247.319,-247.319)">
            <g transform="matrix(0.779134,-0.449833,0.449833,0.779134,-67.2983,163.017)">
                <g>
                    <path d="M485.291,129.408L261.291,1.408C258.006,-0.469 253.995,-0.469 250.71,1.408L26.71,129.408C23.382,131.307 21.334,134.848 21.334,138.667L21.334,373.334C21.334,377.153 23.382,380.694 26.71,382.593L250.71,510.593C252.353,511.532 254.166,512.001 256.001,512.001C257.836,512.001 259.649,511.532 261.292,510.593L485.292,382.593C488.62,380.694 490.668,377.153 490.668,373.334L490.668,138.667C490.667,134.848 488.619,131.307 485.291,129.408ZM469.333,367.147L256,489.045L42.667,367.147L42.667,144.853L256,22.955L469.333,144.854L469.333,367.147Z" style="fill-rule:nonzero;"/>
                </g>
            </g>
        </g>
    </g>
    <g transform="matrix(0.709387,0,0,0.709387,514.563,710.274)">
        <g transform="matrix(1,0,0,1,-247.319,-247.319)">
            <g transform="matrix(0.779134,-0.449833,0.449833,0.779134,-67.2983,163.017)">
                <g>
                    <path d="M485.291,129.408L261.291,1.408C258.006,-0.469 253.995,-0.469 250.71,1.408L26.71,129.408C23.382,131.307 21.334,134.848 21.334,138.667L21.334,373.334C21.334,377.153 23.382,380.694 26.71,382.593L250.71,510.593C252.353,511.532 254.166,512.001 256.001,512.001C257.836,512.001 259.649,511.532 261.292,510.593L485.292,382.593C488.62,380.694 490.668,377.153 490.668,373.334L490.668,138.667C490.667,134.848 488.619,131.307 485.291,129.408ZM469.333,367.147L256,489.045L42.667,367.147L42.667,144.853L256,22.955L469.333,144.854L469.333,367.147Z" style="fill-rule:nonzero;"/>
                </g>
            </g>
        </g>
    </g>
    <g transform="matrix(0.709387,0,0,0.709387,841.881,885.719)">
        <g opacity="0.75">
            <g transform="matrix(1,0,0,1,-247.319,-247.319)">
                <g transform="matrix(0.779134,-0.449833,0.449833,0.779134,-67.2983,163.017)">
                    <g>
                        <path d="M485.291,129.408L261.291,1.408C258.006,-0.469 253.995,-0.469 250.71,1.408L26.71,129.408C23.382,131.307 21.334,134.848 21.334,138.667L21.334,373.334C21.334,377.153 23.382,380.694 26.71,382.593L250.71,510.593C252.353,511.532 254.166,512.001 256.001,512.001C257.836,512.001 259.649,511.532 261.292,510.593L485.292,382.593C488.62,380.694 490.668,377.153 490.668,373.334L490.668,138.667C490.667,134.848 488.619,131.307 485.291,129.408ZM469.333,367.147L256,489.045L42.667,367.147L42.667,144.853L256,22.955L469.333,144.854L469.333,367.147Z" style="fill-rule:nonzero;"/>
                    </g>
                </g>
            </g>
        </g>
    </g>
    <g transform="matrix(0.709387,0,0,0.709387,1157.94,1061.16)">
        <g opacity="0.5">
            <g transform="matrix(1,0,0,1,-247.319,-247.319)">
                <g transform="matrix(0.779134,-0.449833,0.449833,0.779134,-67.2983,163.017)">
                    <g>
                        <path d="M485.291,129.408L261.291,1.408C258.006,-0.469 253.995,-0.469 250.71,1.408L26.71,129.408C23.382,131.307 21.334,134.848 21.334,138.667L21.334,373.334C21.334,377.153 23.382,380.694 26.71,382.593L250.71,510.593C252.353,511.532 254.166,512.001 256.001,512.001C257.836,512.001 259.649,511.532 261.292,510.593L485.292,382.593C488.62,380.694 490.668,377.153 490.668,373.334L490.668,138.667C490.667,134.848 488.619,131.307 485.291,129.408ZM469.333,367.147L256,489.045L42.667,367.147L42.667,144.853L256,22.955L469.333,144.854L469.333,367.147Z" style="fill-rule:nonzero;"/>
                    </g>
                </g>
            </g>
        </g>
    </g>
    <g transform="matrix(0.709387,0,0,0.709387,834.462,1236.61)">
        <g opacity="0.5">
            <g transform="matrix(1,0,0,1,-247.319,-247.319)">
                <g transform="matrix(0.779134,-0.449833,0.449833,0.779134,-67.2983,163.017)">
                    <g>
                        <path d="M485.291,129.408L261.291,1.408C258.006,-0.469 253.995,-0.469 250.71,1.408L26.71,129.408C23.382,131.307 21.334,134.848 21.334,138.667L21.334,373.334C21.334,377.153 23.382,380.694 26.71,382.593L250.71,510.593C252.353,511.532 254.166,512.001 256.001,512.001C257.836,512.001 259.649,511.532 261.292,510.593L485.292,382.593C488.62,380.694 490.668,377.153 490.668,373.334L490.668,138.667C490.667,134.848 488.619,131.307 485.291,129.408ZM469.333,367.147L256,489.045L42.667,367.147L42.667,144.853L256,22.955L469.333,144.854L469.333,367.147Z" style="fill-rule:nonzero;"/>
                    </g>
                </g>
            </g>
        </g>
    </g>
    <g transform="matrix(0.709387,0,0,0.709387,186.169,901.954)">
        <g opacity="0.5">
            <g transform="matrix(1,0,0,1,-247.319,-247.319)">
                <g transform="matrix(0.779134,-0.449833,0.449833,0.779134,-67.2983,163.017)">
                    <g>
                        <path d="M485.291,129.408L261.291,1.408C258.006,-0.469 253.995,-0.469 250.71,1.408L26.71,129.408C23.382,131.307 21.334,134.848 21.334,138.667L21.334,373.334C21.334,377.153 23.382,380.694 26.71,382.593L250.71,510.593C252.353,511.532 254.166,512.001 256.001,512.001C257.836,512.001 259.649,511.532 261.292,510.593L485.292,382.593C488.62,380.694 490.668,377.153 490.668,373.334L490.668,138.667C490.667,134.848 488.619,131.307 485.291,129.408ZM469.333,367.147L256,489.045L42.667,367.147L42.667,144.853L256,22.955L469.333,144.854L469.333,367.147Z" style="fill-rule:nonzero;"/>
                    </g>
                </g>
            </g>
        </g>
    </g>
    <g transform="matrix(0.709387,0,0,0.709387,1490.83,885.719)">
        <g opacity="0.75">
            <g transform="matrix(1,0,0,1,-247.319,-247.319)">
                <g transform="matrix(0.779134,-0.449833,0.449833,0.779134,-67.2983,163.017)">
                    <g>
                        <path d="M485.291,129.408L261.291,1.408C258.006,-0.469 253.995,-0.469 250.71,1.408L26.71,129.408C23.382,131.307 21.334,134.848 21.334,138.667L21.334,373.334C21.334,377.153 23.382,380.694 26.71,382.593L250.71,510.593C252.353,511.532 254.166,512.001 256.001,512.001C257.836,512.001 259.649,511.532 261.292,510.593L485.292,382.593C488.62,380.694 490.668,377.153 490.668,373.334L490.668,138.667C490.667,134.848 488.619,131.307 485.291,129.408ZM469.333,367.147L256,489.045L42.667,367.147L42.667,144.853L256,22.955L469.333,144.854L469.333,367.147Z" style="fill-rule:nonzero;"/>
                    </g>
                </g>
            </g>
        </g>
    </g>
    <g transform="matrix(0.709387,0,0,0.709387,520.707,1061.16)">
        <g opacity="0.75">
            <g transform="matrix(1,0,0,1,-247.319,-247.319)">
                <g transform="matrix(0.779134,-0.449833,0.449833,0.779134,-67.2983,163.017)">
                    <g>
                        <path d="M485.291,129.408L261.291,1.408C258.006,-0.469 253.995,-0.469 250.71,1.408L26.71,129.408C23.382,131.307 21.334,134.848 21.334,138.667L21.334,373.334C21.334,377.153 23.382,380.694 26.71,382.593L250.71,510.593C252.353,511.532 254.166,512.001 256.001,512.001C257.836,512.001 259.649,511.532 261.292,510.593L485.292,382.593C488.62,380.694 490.668,377.153 490.668,373.334L490.668,138.667C490.667,134.848 488.619,131.307 485.291,129.408ZM469.333,367.147L256,489.045L42.667,367.147L42.667,144.853L256,22.955L469.333,144.854L469.333,367.147Z" style="fill-rule:nonzero;"/>
                    </g>
                </g>
            </g>
        </g>
    </g>
    <g transform="matrix(0.709387,0,0,0.709387,1490.83,534.829)">
        <g opacity="0.5">
            <g transform="matrix(1,0,0,1,-247.319,-247.319)">
                <g transform="matrix(0.779134,-0.449833,0.449833,0.779134,-67.2983,163.017)">
                    <g>
                        <path d="M485.291,129.408L261.291,1.408C258.006,-0.469 253.995,-0.469 250.71,1.408L26.71,129.408C23.382,131.307 21.334,134.848 21.334,138.667L21.334,373.334C21.334,377.153 23.382,380.694 26.71,382.593L250.71,510.593C252.353,511.532 254.166,512.001 256.001,512.001C257.836,512.001 259.649,511.532 261.292,510.593L485.292,382.593C488.62,380.694 490.668,377.153 490.668,373.334L490.668,138.667C490.667,134.848 488.619,131.307 485.291,129.408ZM469.333,367.147L256,489.045L42.667,367.147L42.667,144.853L256,22.955L469.333,144.854L469.333,367.147Z" style="fill-rule:nonzero;"/>
                    </g>
                </g>
            </g>
        </g>
    </g>
    <g transform="matrix(0.698035,0,0,0.698035,1816.64,707.466)">
        <g transform="matrix(1,0,0,1,-247.319,-247.319)">
            <g transform="matrix(0.779134,-0.449833,0.449833,0.779134,-67.2983,163.017)">
                <g>
                    <path d="M485.291,129.408L261.291,1.408C258.006,-0.469 253.995,-0.469 250.71,1.408L26.71,129.408C23.382,131.307 21.334,134.848 21.334,138.667L21.334,373.334C21.334,377.153 23.382,380.694 26.71,382.593L250.71,510.593C252.353,511.532 254.166,512.001 256.001,512.001C257.836,512.001 259.649,511.532 261.292,510.593L485.292,382.593C488.62,380.694 490.668,377.153 490.668,373.334L490.668,138.667C490.667,134.848 488.619,131.307 485.291,129.408ZM469.333,367.147L256,489.045L42.667,367.147L42.667,144.853L256,22.955L469.333,144.854L469.333,367.147Z" style="fill-rule:nonzero;"/>
                </g>
            </g>
        </g>
    </g>
    <g transform="matrix(0.698035,0,0,0.698035,839.074,172.637)">
        <g opacity="0.5">
            <g transform="matrix(1,0,0,1,-247.319,-247.319)">
                <g transform="matrix(0.779134,-0.449833,0.449833,0.779134,-67.2983,163.017)">
                    <g>
                        <path d="M485.291,129.408L261.291,1.408C258.006,-0.469 253.995,-0.469 250.71,1.408L26.71,129.408C23.382,131.307 21.334,134.848 21.334,138.667L21.334,373.334C21.334,377.153 23.382,380.694 26.71,382.593L250.71,510.593C252.353,511.532 254.166,512.001 256.001,512.001C257.836,512.001 259.649,511.532 261.292,510.593L485.292,382.593C488.62,380.694 490.668,377.153 490.668,373.334L490.668,138.667C490.667,134.848 488.619,131.307 485.291,129.408ZM469.333,367.147L256,489.045L42.667,367.147L42.667,144.853L256,22.955L469.333,144.854L469.333,367.147Z" style="fill-rule:nonzero;"/>
                    </g>
                </g>
            </g>
        </g>
    </g>
    <g transform="matrix(0.698035,0,0,0.698035,517.899,357.86)">
        <g opacity="0.5">
            <g transform="matrix(1,0,0,1,-247.319,-247.319)">
                <g transform="matrix(0.779134,-0.449833,0.449833,0.779134,-67.2983,163.017)">
                    <g>
                        <path d="M485.291,129.408L261.291,1.408C258.006,-0.469 253.995,-0.469 250.71,1.408L26.71,129.408C23.382,131.307 21.334,134.848 21.334,138.667L21.334,373.334C21.334,377.153 23.382,380.694 26.71,382.593L250.71,510.593C252.353,511.532 254.166,512.001 256.001,512.001C257.836,512.001 259.649,511.532 261.292,510.593L485.292,382.593C488.62,380.694 490.668,377.153 490.668,373.334L490.668,138.667C490.667,134.848 488.619,131.307 485.291,129.408ZM469.333,367.147L256,489.045L42.667,367.147L42.667,144.853L256,22.955L469.333,144.854L469.333,367.147Z" style="fill-rule:nonzero;"/>
                    </g>
                </g>
            </g>
        </g>
    </g>
</svg>
