<?xml version="1.0" encoding="UTF-8" standalone="no"?>
<!DOCTYPE svg PUBLIC "-//W3C//DTD SVG 1.1//EN" "http://www.w3.org/Graphics/SVG/1.1/DTD/svg11.dtd">
<svg width="100%" height="100%" viewBox="0 0 3484 1606" version="1.1" xmlns="http://www.w3.org/2000/svg" xmlns:xlink="http://www.w3.org/1999/xlink" xml:space="preserve" xmlns:serif="http://www.serif.com/" style="fill-rule:evenodd;clip-rule:evenodd;stroke-linejoin:round;stroke-miterlimit:2;">
    <g id="Hero-Backgroun-Elements" serif:id="Hero Backgroun Elements" transform="matrix(0.767486,0,0,1.78145,-2264,1035.27)">
        <g transform="matrix(0.840541,0,0,0.47183,2335.22,-158.955)">
            <g transform="matrix(0.9243,0,0,0.709387,5468.19,-37.5569)">
                <g opacity="0.75">
                    <g transform="matrix(1,0,0,1,-247.319,-247.319)">
                        <g transform="matrix(0.779134,-0.449833,0.449833,0.779134,-67.2983,163.017)">
                            <g>
                                <path d="M485.291,129.408L261.291,1.408C258.006,-0.469 253.995,-0.469 250.71,1.408L26.71,129.408C23.382,131.307 21.334,134.848 21.334,138.667L21.334,373.334C21.334,377.153 23.382,380.694 26.71,382.593L250.71,510.593C252.353,511.532 254.166,512.001 256.001,512.001C257.836,512.001 259.649,511.532 261.292,510.593L485.292,382.593C488.62,380.694 490.668,377.153 490.668,373.334L490.668,138.667C490.667,134.848 488.619,131.307 485.291,129.408ZM469.333,367.147L256,489.045L42.667,367.147L42.667,144.853L256,22.955L469.333,144.854L469.333,367.147Z" style="fill-rule:nonzero;"/>
                            </g>
                        </g>
                    </g>
                </g>
            </g>
            <g transform="matrix(0.9243,0,0,0.709387,4222.77,137.998)">
                <g opacity="0.75">
                    <g transform="matrix(1,0,0,1,-247.319,-247.319)">
                        <g transform="matrix(0.779134,-0.449833,0.449833,0.779134,-67.2983,163.017)">
                            <g>
                                <path d="M485.291,129.408L261.291,1.408C258.006,-0.469 253.995,-0.469 250.71,1.408L26.71,129.408C23.382,131.307 21.334,134.848 21.334,138.667L21.334,373.334C21.334,377.153 23.382,380.694 26.71,382.593L250.71,510.593C252.353,511.532 254.166,512.001 256.001,512.001C257.836,512.001 259.649,511.532 261.292,510.593L485.292,382.593C488.62,380.694 490.668,377.153 490.668,373.334L490.668,138.667C490.667,134.848 488.619,131.307 485.291,129.408ZM469.333,367.147L256,489.045L42.667,367.147L42.667,144.853L256,22.955L469.333,144.854L469.333,367.147Z" style="fill-rule:nonzero;"/>
                            </g>
                        </g>
                    </g>
                </g>
            </g>
            <g transform="matrix(0.9243,0,0,0.709387,5056.38,137.888)">
                <g transform="matrix(1,0,0,1,-247.319,-247.319)">
                    <g transform="matrix(0.779134,-0.449833,0.449833,0.779134,-67.2983,163.017)">
                        <g>
                            <path d="M485.291,129.408L261.291,1.408C258.006,-0.469 253.995,-0.469 250.71,1.408L26.71,129.408C23.382,131.307 21.334,134.848 21.334,138.667L21.334,373.334C21.334,377.153 23.382,380.694 26.71,382.593L250.71,510.593C252.353,511.532 254.166,512.001 256.001,512.001C257.836,512.001 259.649,511.532 261.292,510.593L485.292,382.593C488.62,380.694 490.668,377.153 490.668,373.334L490.668,138.667C490.667,134.848 488.619,131.307 485.291,129.408ZM469.333,367.147L256,489.045L42.667,367.147L42.667,144.853L256,22.955L469.333,144.854L469.333,367.147Z" style="fill-rule:nonzero;"/>
                        </g>
                    </g>
                </g>
            </g>
            <g transform="matrix(0.9243,0,0,0.709387,5468.19,313.332)">
                <g transform="matrix(1,0,0,1,-247.319,-247.319)">
                    <g transform="matrix(0.779134,-0.449833,0.449833,0.779134,-67.2983,163.017)">
                        <g>
                            <path d="M485.291,129.408L261.291,1.408C258.006,-0.469 253.995,-0.469 250.71,1.408L26.71,129.408C23.382,131.307 21.334,134.848 21.334,138.667L21.334,373.334C21.334,377.153 23.382,380.694 26.71,382.593L250.71,510.593C252.353,511.532 254.166,512.001 256.001,512.001C257.836,512.001 259.649,511.532 261.292,510.593L485.292,382.593C488.62,380.694 490.668,377.153 490.668,373.334L490.668,138.667C490.667,134.848 488.619,131.307 485.291,129.408ZM469.333,367.147L256,489.045L42.667,367.147L42.667,144.853L256,22.955L469.333,144.854L469.333,367.147Z" style="fill-rule:nonzero;"/>
                        </g>
                    </g>
                </g>
            </g>
            <g transform="matrix(0.9243,0,0,0.709387,4629.9,313.332)">
                <g transform="matrix(1,0,0,1,-247.319,-247.319)">
                    <g transform="matrix(0.779134,-0.449833,0.449833,0.779134,-67.2983,163.017)">
                        <g>
                            <path d="M485.291,129.408L261.291,1.408C258.006,-0.469 253.995,-0.469 250.71,1.408L26.71,129.408C23.382,131.307 21.334,134.848 21.334,138.667L21.334,373.334C21.334,377.153 23.382,380.694 26.71,382.593L250.71,510.593C252.353,511.532 254.166,512.001 256.001,512.001C257.836,512.001 259.649,511.532 261.292,510.593L485.292,382.593C488.62,380.694 490.668,377.153 490.668,373.334L490.668,138.667C490.667,134.848 488.619,131.307 485.291,129.408ZM469.333,367.147L256,489.045L42.667,367.147L42.667,144.853L256,22.955L469.333,144.854L469.333,367.147Z" style="fill-rule:nonzero;"/>
                        </g>
                    </g>
                </g>
            </g>
            <g transform="matrix(0.9243,0,0,0.709387,5056.38,488.777)">
                <g opacity="0.75">
                    <g transform="matrix(1,0,0,1,-247.319,-247.319)">
                        <g transform="matrix(0.779134,-0.449833,0.449833,0.779134,-67.2983,163.017)">
                            <g>
                                <path d="M485.291,129.408L261.291,1.408C258.006,-0.469 253.995,-0.469 250.71,1.408L26.71,129.408C23.382,131.307 21.334,134.848 21.334,138.667L21.334,373.334C21.334,377.153 23.382,380.694 26.71,382.593L250.71,510.593C252.353,511.532 254.166,512.001 256.001,512.001C257.836,512.001 259.649,511.532 261.292,510.593L485.292,382.593C488.62,380.694 490.668,377.153 490.668,373.334L490.668,138.667C490.667,134.848 488.619,131.307 485.291,129.408ZM469.333,367.147L256,489.045L42.667,367.147L42.667,144.853L256,22.955L469.333,144.854L469.333,367.147Z" style="fill-rule:nonzero;"/>
                            </g>
                        </g>
                    </g>
                </g>
            </g>
            <g transform="matrix(0.9243,0,0,0.709387,5468.19,664.221)">
                <g opacity="0.5">
                    <g transform="matrix(1,0,0,1,-247.319,-247.319)">
                        <g transform="matrix(0.779134,-0.449833,0.449833,0.779134,-67.2983,163.017)">
                            <g>
                                <path d="M485.291,129.408L261.291,1.408C258.006,-0.469 253.995,-0.469 250.71,1.408L26.71,129.408C23.382,131.307 21.334,134.848 21.334,138.667L21.334,373.334C21.334,377.153 23.382,380.694 26.71,382.593L250.71,510.593C252.353,511.532 254.166,512.001 256.001,512.001C257.836,512.001 259.649,511.532 261.292,510.593L485.292,382.593C488.62,380.694 490.668,377.153 490.668,373.334L490.668,138.667C490.667,134.848 488.619,131.307 485.291,129.408ZM469.333,367.147L256,489.045L42.667,367.147L42.667,144.853L256,22.955L469.333,144.854L469.333,367.147Z" style="fill-rule:nonzero;"/>
                            </g>
                        </g>
                    </g>
                </g>
            </g>
            <g transform="matrix(0.9243,0,0,0.709387,5046.72,839.666)">
                <g opacity="0.5">
                    <g transform="matrix(1,0,0,1,-247.319,-247.319)">
                        <g transform="matrix(0.779134,-0.449833,0.449833,0.779134,-67.2983,163.017)">
                            <g>
                                <path d="M485.291,129.408L261.291,1.408C258.006,-0.469 253.995,-0.469 250.71,1.408L26.71,129.408C23.382,131.307 21.334,134.848 21.334,138.667L21.334,373.334C21.334,377.153 23.382,380.694 26.71,382.593L250.71,510.593C252.353,511.532 254.166,512.001 256.001,512.001C257.836,512.001 259.649,511.532 261.292,510.593L485.292,382.593C488.62,380.694 490.668,377.153 490.668,373.334L490.668,138.667C490.667,134.848 488.619,131.307 485.291,129.408ZM469.333,367.147L256,489.045L42.667,367.147L42.667,144.853L256,22.955L469.333,144.854L469.333,367.147Z" style="fill-rule:nonzero;"/>
                            </g>
                        </g>
                    </g>
                </g>
            </g>
            <g transform="matrix(0.9243,0,0,0.709387,4202.02,505.012)">
                <g opacity="0.5">
                    <g transform="matrix(1,0,0,1,-247.319,-247.319)">
                        <g transform="matrix(0.779134,-0.449833,0.449833,0.779134,-67.2983,163.017)">
                            <g>
                                <path d="M485.291,129.408L261.291,1.408C258.006,-0.469 253.995,-0.469 250.71,1.408L26.71,129.408C23.382,131.307 21.334,134.848 21.334,138.667L21.334,373.334C21.334,377.153 23.382,380.694 26.71,382.593L250.71,510.593C252.353,511.532 254.166,512.001 256.001,512.001C257.836,512.001 259.649,511.532 261.292,510.593L485.292,382.593C488.62,380.694 490.668,377.153 490.668,373.334L490.668,138.667C490.667,134.848 488.619,131.307 485.291,129.408ZM469.333,367.147L256,489.045L42.667,367.147L42.667,144.853L256,22.955L469.333,144.854L469.333,367.147Z" style="fill-rule:nonzero;"/>
                            </g>
                        </g>
                    </g>
                </g>
            </g>
            <g transform="matrix(0.9243,0,0,0.709387,5901.94,488.777)">
                <g opacity="0.75">
                    <g transform="matrix(1,0,0,1,-247.319,-247.319)">
                        <g transform="matrix(0.779134,-0.449833,0.449833,0.779134,-67.2983,163.017)">
                            <g>
                                <path d="M485.291,129.408L261.291,1.408C258.006,-0.469 253.995,-0.469 250.71,1.408L26.71,129.408C23.382,131.307 21.334,134.848 21.334,138.667L21.334,373.334C21.334,377.153 23.382,380.694 26.71,382.593L250.71,510.593C252.353,511.532 254.166,512.001 256.001,512.001C257.836,512.001 259.649,511.532 261.292,510.593L485.292,382.593C488.62,380.694 490.668,377.153 490.668,373.334L490.668,138.667C490.667,134.848 488.619,131.307 485.291,129.408ZM469.333,367.147L256,489.045L42.667,367.147L42.667,144.853L256,22.955L469.333,144.854L469.333,367.147Z" style="fill-rule:nonzero;"/>
                            </g>
                        </g>
                    </g>
                </g>
            </g>
            <g transform="matrix(0.9243,0,0,0.709387,4637.91,664.221)">
                <g opacity="0.75">
                    <g transform="matrix(1,0,0,1,-247.319,-247.319)">
                        <g transform="matrix(0.779134,-0.449833,0.449833,0.779134,-67.2983,163.017)">
                            <g>
                                <path d="M485.291,129.408L261.291,1.408C258.006,-0.469 253.995,-0.469 250.71,1.408L26.71,129.408C23.382,131.307 21.334,134.848 21.334,138.667L21.334,373.334C21.334,377.153 23.382,380.694 26.71,382.593L250.71,510.593C252.353,511.532 254.166,512.001 256.001,512.001C257.836,512.001 259.649,511.532 261.292,510.593L485.292,382.593C488.62,380.694 490.668,377.153 490.668,373.334L490.668,138.667C490.667,134.848 488.619,131.307 485.291,129.408ZM469.333,367.147L256,489.045L42.667,367.147L42.667,144.853L256,22.955L469.333,144.854L469.333,367.147Z" style="fill-rule:nonzero;"/>
                            </g>
                        </g>
                    </g>
                </g>
            </g>
            <g transform="matrix(0.9243,0,0,0.709387,5901.94,137.888)">
                <g opacity="0.5">
                    <g transform="matrix(1,0,0,1,-247.319,-247.319)">
                        <g transform="matrix(0.779134,-0.449833,0.449833,0.779134,-67.2983,163.017)">
                            <g>
                                <path d="M485.291,129.408L261.291,1.408C258.006,-0.469 253.995,-0.469 250.71,1.408L26.71,129.408C23.382,131.307 21.334,134.848 21.334,138.667L21.334,373.334C21.334,377.153 23.382,380.694 26.71,382.593L250.71,510.593C252.353,511.532 254.166,512.001 256.001,512.001C257.836,512.001 259.649,511.532 261.292,510.593L485.292,382.593C488.62,380.694 490.668,377.153 490.668,373.334L490.668,138.667C490.667,134.848 488.619,131.307 485.291,129.408ZM469.333,367.147L256,489.045L42.667,367.147L42.667,144.853L256,22.955L469.333,144.854L469.333,367.147Z" style="fill-rule:nonzero;"/>
                            </g>
                        </g>
                    </g>
                </g>
            </g>
            <g transform="matrix(0.909509,0,0,0.698035,5052.73,-224.305)">
                <g opacity="0.5">
                    <g transform="matrix(1,0,0,1,-247.319,-247.319)">
                        <g transform="matrix(0.779134,-0.449833,0.449833,0.779134,-67.2983,163.017)">
                            <g>
                                <path d="M485.291,129.408L261.291,1.408C258.006,-0.469 253.995,-0.469 250.71,1.408L26.71,129.408C23.382,131.307 21.334,134.848 21.334,138.667L21.334,373.334C21.334,377.153 23.382,380.694 26.71,382.593L250.71,510.593C252.353,511.532 254.166,512.001 256.001,512.001C257.836,512.001 259.649,511.532 261.292,510.593L485.292,382.593C488.62,380.694 490.668,377.153 490.668,373.334L490.668,138.667C490.667,134.848 488.619,131.307 485.291,129.408ZM469.333,367.147L256,489.045L42.667,367.147L42.667,144.853L256,22.955L469.333,144.854L469.333,367.147Z" style="fill-rule:nonzero;"/>
                            </g>
                        </g>
                    </g>
                </g>
            </g>
            <g transform="matrix(0.909509,0,0,0.698035,4634.25,-39.0821)">
                <g opacity="0.5">
                    <g transform="matrix(1,0,0,1,-247.319,-247.319)">
                        <g transform="matrix(0.779134,-0.449833,0.449833,0.779134,-67.2983,163.017)">
                            <g>
                                <path d="M485.291,129.408L261.291,1.408C258.006,-0.469 253.995,-0.469 250.71,1.408L26.71,129.408C23.382,131.307 21.334,134.848 21.334,138.667L21.334,373.334C21.334,377.153 23.382,380.694 26.71,382.593L250.71,510.593C252.353,511.532 254.166,512.001 256.001,512.001C257.836,512.001 259.649,511.532 261.292,510.593L485.292,382.593C488.62,380.694 490.668,377.153 490.668,373.334L490.668,138.667C490.667,134.848 488.619,131.307 485.291,129.408ZM469.333,367.147L256,489.045L42.667,367.147L42.667,144.853L256,22.955L469.333,144.854L469.333,367.147Z" style="fill-rule:nonzero;"/>
                            </g>
                        </g>
                    </g>
                </g>
            </g>
        </g>
        <g transform="matrix(0.840541,0,0,0.47183,-389.94,-393.85)">
            <g transform="matrix(0.9243,0,0,0.709387,5468.19,-37.5569)">
                <g opacity="0.75">
                    <g transform="matrix(1,0,0,1,-247.319,-247.319)">
                        <g transform="matrix(0.779134,-0.449833,0.449833,0.779134,-67.2983,163.017)">
                            <g>
                                <path d="M485.291,129.408L261.291,1.408C258.006,-0.469 253.995,-0.469 250.71,1.408L26.71,129.408C23.382,131.307 21.334,134.848 21.334,138.667L21.334,373.334C21.334,377.153 23.382,380.694 26.71,382.593L250.71,510.593C252.353,511.532 254.166,512.001 256.001,512.001C257.836,512.001 259.649,511.532 261.292,510.593L485.292,382.593C488.62,380.694 490.668,377.153 490.668,373.334L490.668,138.667C490.667,134.848 488.619,131.307 485.291,129.408ZM469.333,367.147L256,489.045L42.667,367.147L42.667,144.853L256,22.955L469.333,144.854L469.333,367.147Z" style="fill-rule:nonzero;"/>
                            </g>
                        </g>
                    </g>
                </g>
            </g>
            <g transform="matrix(0.9243,0,0,0.709387,4222.77,137.998)">
                <g opacity="0.75">
                    <g transform="matrix(1,0,0,1,-247.319,-247.319)">
                        <g transform="matrix(0.779134,-0.449833,0.449833,0.779134,-67.2983,163.017)">
                            <g>
                                <path d="M485.291,129.408L261.291,1.408C258.006,-0.469 253.995,-0.469 250.71,1.408L26.71,129.408C23.382,131.307 21.334,134.848 21.334,138.667L21.334,373.334C21.334,377.153 23.382,380.694 26.71,382.593L250.71,510.593C252.353,511.532 254.166,512.001 256.001,512.001C257.836,512.001 259.649,511.532 261.292,510.593L485.292,382.593C488.62,380.694 490.668,377.153 490.668,373.334L490.668,138.667C490.667,134.848 488.619,131.307 485.291,129.408ZM469.333,367.147L256,489.045L42.667,367.147L42.667,144.853L256,22.955L469.333,144.854L469.333,367.147Z" style="fill-rule:nonzero;"/>
                            </g>
                        </g>
                    </g>
                </g>
            </g>
            <g transform="matrix(0.9243,0,0,0.709387,5056.38,137.888)">
                <g transform="matrix(1,0,0,1,-247.319,-247.319)">
                    <g transform="matrix(0.779134,-0.449833,0.449833,0.779134,-67.2983,163.017)">
                        <g>
                            <path d="M485.291,129.408L261.291,1.408C258.006,-0.469 253.995,-0.469 250.71,1.408L26.71,129.408C23.382,131.307 21.334,134.848 21.334,138.667L21.334,373.334C21.334,377.153 23.382,380.694 26.71,382.593L250.71,510.593C252.353,511.532 254.166,512.001 256.001,512.001C257.836,512.001 259.649,511.532 261.292,510.593L485.292,382.593C488.62,380.694 490.668,377.153 490.668,373.334L490.668,138.667C490.667,134.848 488.619,131.307 485.291,129.408ZM469.333,367.147L256,489.045L42.667,367.147L42.667,144.853L256,22.955L469.333,144.854L469.333,367.147Z" style="fill-rule:nonzero;"/>
                        </g>
                    </g>
                </g>
            </g>
            <g transform="matrix(0.9243,0,0,0.709387,5468.19,313.332)">
                <g transform="matrix(1,0,0,1,-247.319,-247.319)">
                    <g transform="matrix(0.779134,-0.449833,0.449833,0.779134,-67.2983,163.017)">
                        <g>
                            <path d="M485.291,129.408L261.291,1.408C258.006,-0.469 253.995,-0.469 250.71,1.408L26.71,129.408C23.382,131.307 21.334,134.848 21.334,138.667L21.334,373.334C21.334,377.153 23.382,380.694 26.71,382.593L250.71,510.593C252.353,511.532 254.166,512.001 256.001,512.001C257.836,512.001 259.649,511.532 261.292,510.593L485.292,382.593C488.62,380.694 490.668,377.153 490.668,373.334L490.668,138.667C490.667,134.848 488.619,131.307 485.291,129.408ZM469.333,367.147L256,489.045L42.667,367.147L42.667,144.853L256,22.955L469.333,144.854L469.333,367.147Z" style="fill-rule:nonzero;"/>
                        </g>
                    </g>
                </g>
            </g>
            <g transform="matrix(0.9243,0,0,0.709387,4629.9,313.332)">
                <g transform="matrix(1,0,0,1,-247.319,-247.319)">
                    <g transform="matrix(0.779134,-0.449833,0.449833,0.779134,-67.2983,163.017)">
                        <g>
                            <path d="M485.291,129.408L261.291,1.408C258.006,-0.469 253.995,-0.469 250.71,1.408L26.71,129.408C23.382,131.307 21.334,134.848 21.334,138.667L21.334,373.334C21.334,377.153 23.382,380.694 26.71,382.593L250.71,510.593C252.353,511.532 254.166,512.001 256.001,512.001C257.836,512.001 259.649,511.532 261.292,510.593L485.292,382.593C488.62,380.694 490.668,377.153 490.668,373.334L490.668,138.667C490.667,134.848 488.619,131.307 485.291,129.408ZM469.333,367.147L256,489.045L42.667,367.147L42.667,144.853L256,22.955L469.333,144.854L469.333,367.147Z" style="fill-rule:nonzero;"/>
                        </g>
                    </g>
                </g>
            </g>
            <g transform="matrix(0.9243,0,0,0.709387,5056.38,488.777)">
                <g opacity="0.75">
                    <g transform="matrix(1,0,0,1,-247.319,-247.319)">
                        <g transform="matrix(0.779134,-0.449833,0.449833,0.779134,-67.2983,163.017)">
                            <g>
                                <path d="M485.291,129.408L261.291,1.408C258.006,-0.469 253.995,-0.469 250.71,1.408L26.71,129.408C23.382,131.307 21.334,134.848 21.334,138.667L21.334,373.334C21.334,377.153 23.382,380.694 26.71,382.593L250.71,510.593C252.353,511.532 254.166,512.001 256.001,512.001C257.836,512.001 259.649,511.532 261.292,510.593L485.292,382.593C488.62,380.694 490.668,377.153 490.668,373.334L490.668,138.667C490.667,134.848 488.619,131.307 485.291,129.408ZM469.333,367.147L256,489.045L42.667,367.147L42.667,144.853L256,22.955L469.333,144.854L469.333,367.147Z" style="fill-rule:nonzero;"/>
                            </g>
                        </g>
                    </g>
                </g>
            </g>
            <g transform="matrix(0.9243,0,0,0.709387,5468.19,664.221)">
                <g opacity="0.5">
                    <g transform="matrix(1,0,0,1,-247.319,-247.319)">
                        <g transform="matrix(0.779134,-0.449833,0.449833,0.779134,-67.2983,163.017)">
                            <g>
                                <path d="M485.291,129.408L261.291,1.408C258.006,-0.469 253.995,-0.469 250.71,1.408L26.71,129.408C23.382,131.307 21.334,134.848 21.334,138.667L21.334,373.334C21.334,377.153 23.382,380.694 26.71,382.593L250.71,510.593C252.353,511.532 254.166,512.001 256.001,512.001C257.836,512.001 259.649,511.532 261.292,510.593L485.292,382.593C488.62,380.694 490.668,377.153 490.668,373.334L490.668,138.667C490.667,134.848 488.619,131.307 485.291,129.408ZM469.333,367.147L256,489.045L42.667,367.147L42.667,144.853L256,22.955L469.333,144.854L469.333,367.147Z" style="fill-rule:nonzero;"/>
                            </g>
                        </g>
                    </g>
                </g>
            </g>
            <g transform="matrix(0.9243,0,0,0.709387,5046.72,839.666)">
                <g opacity="0.5">
                    <g transform="matrix(1,0,0,1,-247.319,-247.319)">
                        <g transform="matrix(0.779134,-0.449833,0.449833,0.779134,-67.2983,163.017)">
                            <g>
                                <path d="M485.291,129.408L261.291,1.408C258.006,-0.469 253.995,-0.469 250.71,1.408L26.71,129.408C23.382,131.307 21.334,134.848 21.334,138.667L21.334,373.334C21.334,377.153 23.382,380.694 26.71,382.593L250.71,510.593C252.353,511.532 254.166,512.001 256.001,512.001C257.836,512.001 259.649,511.532 261.292,510.593L485.292,382.593C488.62,380.694 490.668,377.153 490.668,373.334L490.668,138.667C490.667,134.848 488.619,131.307 485.291,129.408ZM469.333,367.147L256,489.045L42.667,367.147L42.667,144.853L256,22.955L469.333,144.854L469.333,367.147Z" style="fill-rule:nonzero;"/>
                            </g>
                        </g>
                    </g>
                </g>
            </g>
            <g transform="matrix(0.9243,0,0,0.709387,4202.02,505.012)">
                <g opacity="0.5">
                    <g transform="matrix(1,0,0,1,-247.319,-247.319)">
                        <g transform="matrix(0.779134,-0.449833,0.449833,0.779134,-67.2983,163.017)">
                            <g>
                                <path d="M485.291,129.408L261.291,1.408C258.006,-0.469 253.995,-0.469 250.71,1.408L26.71,129.408C23.382,131.307 21.334,134.848 21.334,138.667L21.334,373.334C21.334,377.153 23.382,380.694 26.71,382.593L250.71,510.593C252.353,511.532 254.166,512.001 256.001,512.001C257.836,512.001 259.649,511.532 261.292,510.593L485.292,382.593C488.62,380.694 490.668,377.153 490.668,373.334L490.668,138.667C490.667,134.848 488.619,131.307 485.291,129.408ZM469.333,367.147L256,489.045L42.667,367.147L42.667,144.853L256,22.955L469.333,144.854L469.333,367.147Z" style="fill-rule:nonzero;"/>
                            </g>
                        </g>
                    </g>
                </g>
            </g>
            <g transform="matrix(0.9243,0,0,0.709387,5901.94,488.777)">
                <g opacity="0.75">
                    <g transform="matrix(1,0,0,1,-247.319,-247.319)">
                        <g transform="matrix(0.779134,-0.449833,0.449833,0.779134,-67.2983,163.017)">
                            <g>
                                <path d="M485.291,129.408L261.291,1.408C258.006,-0.469 253.995,-0.469 250.71,1.408L26.71,129.408C23.382,131.307 21.334,134.848 21.334,138.667L21.334,373.334C21.334,377.153 23.382,380.694 26.71,382.593L250.71,510.593C252.353,511.532 254.166,512.001 256.001,512.001C257.836,512.001 259.649,511.532 261.292,510.593L485.292,382.593C488.62,380.694 490.668,377.153 490.668,373.334L490.668,138.667C490.667,134.848 488.619,131.307 485.291,129.408ZM469.333,367.147L256,489.045L42.667,367.147L42.667,144.853L256,22.955L469.333,144.854L469.333,367.147Z" style="fill-rule:nonzero;"/>
                            </g>
                        </g>
                    </g>
                </g>
            </g>
            <g transform="matrix(0.9243,0,0,0.709387,4637.91,664.221)">
                <g opacity="0.75">
                    <g transform="matrix(1,0,0,1,-247.319,-247.319)">
                        <g transform="matrix(0.779134,-0.449833,0.449833,0.779134,-67.2983,163.017)">
                            <g>
                                <path d="M485.291,129.408L261.291,1.408C258.006,-0.469 253.995,-0.469 250.71,1.408L26.71,129.408C23.382,131.307 21.334,134.848 21.334,138.667L21.334,373.334C21.334,377.153 23.382,380.694 26.71,382.593L250.71,510.593C252.353,511.532 254.166,512.001 256.001,512.001C257.836,512.001 259.649,511.532 261.292,510.593L485.292,382.593C488.62,380.694 490.668,377.153 490.668,373.334L490.668,138.667C490.667,134.848 488.619,131.307 485.291,129.408ZM469.333,367.147L256,489.045L42.667,367.147L42.667,144.853L256,22.955L469.333,144.854L469.333,367.147Z" style="fill-rule:nonzero;"/>
                            </g>
                        </g>
                    </g>
                </g>
            </g>
            <g transform="matrix(0.9243,0,0,0.709387,5901.94,137.888)">
                <g opacity="0.5">
                    <g transform="matrix(1,0,0,1,-247.319,-247.319)">
                        <g transform="matrix(0.779134,-0.449833,0.449833,0.779134,-67.2983,163.017)">
                            <g>
                                <path d="M485.291,129.408L261.291,1.408C258.006,-0.469 253.995,-0.469 250.71,1.408L26.71,129.408C23.382,131.307 21.334,134.848 21.334,138.667L21.334,373.334C21.334,377.153 23.382,380.694 26.71,382.593L250.71,510.593C252.353,511.532 254.166,512.001 256.001,512.001C257.836,512.001 259.649,511.532 261.292,510.593L485.292,382.593C488.62,380.694 490.668,377.153 490.668,373.334L490.668,138.667C490.667,134.848 488.619,131.307 485.291,129.408ZM469.333,367.147L256,489.045L42.667,367.147L42.667,144.853L256,22.955L469.333,144.854L469.333,367.147Z" style="fill-rule:nonzero;"/>
                            </g>
                        </g>
                    </g>
                </g>
            </g>
            <g transform="matrix(0.909509,0,0,0.698035,5052.73,-224.305)">
                <g opacity="0.5">
                    <g transform="matrix(1,0,0,1,-247.319,-247.319)">
                        <g transform="matrix(0.779134,-0.449833,0.449833,0.779134,-67.2983,163.017)">
                            <g>
                                <path d="M485.291,129.408L261.291,1.408C258.006,-0.469 253.995,-0.469 250.71,1.408L26.71,129.408C23.382,131.307 21.334,134.848 21.334,138.667L21.334,373.334C21.334,377.153 23.382,380.694 26.71,382.593L250.71,510.593C252.353,511.532 254.166,512.001 256.001,512.001C257.836,512.001 259.649,511.532 261.292,510.593L485.292,382.593C488.62,380.694 490.668,377.153 490.668,373.334L490.668,138.667C490.667,134.848 488.619,131.307 485.291,129.408ZM469.333,367.147L256,489.045L42.667,367.147L42.667,144.853L256,22.955L469.333,144.854L469.333,367.147Z" style="fill-rule:nonzero;"/>
                            </g>
                        </g>
                    </g>
                </g>
            </g>
            <g transform="matrix(0.909509,0,0,0.698035,4634.25,-39.0821)">
                <g opacity="0.5">
                    <g transform="matrix(1,0,0,1,-247.319,-247.319)">
                        <g transform="matrix(0.779134,-0.449833,0.449833,0.779134,-67.2983,163.017)">
                            <g>
                                <path d="M485.291,129.408L261.291,1.408C258.006,-0.469 253.995,-0.469 250.71,1.408L26.71,129.408C23.382,131.307 21.334,134.848 21.334,138.667L21.334,373.334C21.334,377.153 23.382,380.694 26.71,382.593L250.71,510.593C252.353,511.532 254.166,512.001 256.001,512.001C257.836,512.001 259.649,511.532 261.292,510.593L485.292,382.593C488.62,380.694 490.668,377.153 490.668,373.334L490.668,138.667C490.667,134.848 488.619,131.307 485.291,129.408ZM469.333,367.147L256,489.045L42.667,367.147L42.667,144.853L256,22.955L469.333,144.854L469.333,367.147Z" style="fill-rule:nonzero;"/>
                            </g>
                        </g>
                    </g>
                </g>
            </g>
        </g>
    </g>
</svg>
